<?xml version="1.0" standalone="no"?>
<!DOCTYPE svg PUBLIC "-//W3C//DTD SVG 20010904//EN"
 "http://www.w3.org/TR/2001/REC-SVG-20010904/DTD/svg10.dtd">
<svg version="1.0" xmlns="http://www.w3.org/2000/svg"
 width="512.000000pt" height="512.000000pt" viewBox="0 0 512.000000 512.000000"
 preserveAspectRatio="xMidYMid meet">
<metadata>
Created by potrace 1.14, written by Peter Selinger 2001-2017
</metadata>
<g transform="translate(0.000000,512.000000) scale(0.100000,-0.100000)"
fill="#000000" stroke="none">
<path d="M0 2560 l0 -2560 2560 0 2560 0 0 2560 0 2560 -2560 0 -2560 0 0
-2560z m802 1355 l3 -586 575 585 575 586 193 0 c105 0 192 -3 192 -8 0 -4
-212 -219 -470 -477 -259 -259 -468 -475 -466 -482 5 -11 204 -299 731 -1058
111 -159 205 -296 209 -302 6 -10 -32 -13 -173 -13 l-179 0 -409 595 -408 594
-187 -187 -188 -187 0 -407 0 -408 -155 0 -155 0 0 1170 0 1170 155 0 155 0 2
-585z m3888 -1020 l0 -135 -380 0 -380 0 0 -1035 0 -1035 -155 0 -155 0 0
1035 0 1035 -385 0 -385 0 0 135 0 135 920 0 920 0 0 -135z"/>
</g>
</svg>
